<svg id="Layer_1" data-name="Layer 1" xmlns="http://www.w3.org/2000/svg" viewBox="0 0 144 144"><defs><style>.cls-1{fill:#ce2738;}.cls-2,.cls-3{fill:#666;}.cls-3{font-size:12px;font-family:Anton-Regular, Anton;}.cls-4{fill:#000;}</style></defs><title>Artboard 1</title><path class="cls-1" d="M82.83,78.07A7.5,7.5,0,0,1,81,81.52a10.52,10.52,0,0,1-2.69,2,1.76,1.76,0,0,1,.13-.2l.12-.14a12.64,12.64,0,0,0,3.23-6.28,11.89,11.89,0,0,0,.12-3.57,3.79,3.79,0,0,1,1.92-3.84,63.6,63.6,0,0,0,9.9-6.87,39.13,39.13,0,0,0,7.43-8.14,8,8,0,0,1,.67-1c.06.46.14.91.17,1.36a11.79,11.79,0,0,1-.53,5,7.35,7.35,0,0,1-2.78,3.6c-2.39,1.61-4.91,3-7.42,4.37-1.86,1-3.73,2-5.6,3a.31.31,0,0,0-.15.18l14.45-6.58s0,.09,0,.11A19.16,19.16,0,0,1,97.14,69,5.89,5.89,0,0,1,94,70.73c-2.58.64-5.16,1.24-7.75,1.86a.51.51,0,0,0-.26.14l10.88-1.82c-.07.32-.1.59-.18.84a3.17,3.17,0,0,1-1.78,2.33A5.49,5.49,0,0,1,93,74.4c-2.73,0-5.45.06-8.18.08a.74.74,0,0,0-.35.06l10,.95,0,.08c-.41.31-.8.64-1.22.92a5.24,5.24,0,0,1-2.89,1.1,7.89,7.89,0,0,1-2-.31c-1.27-.36-2.51-.8-3.77-1.21a.89.89,0,0,0-.41-.06l6.66,3.62a4.08,4.08,0,0,1-2.22.4,6.07,6.07,0,0,1-3.09-1.5c-.64-.5-1.23-1.06-1.85-1.59a.47.47,0,0,0-.25-.14l3.11,4.84a5,5,0,0,1-2.32-1.32A6.24,6.24,0,0,1,82.83,78.07Z"/><path class="cls-2" d="M49.43,75.51l10-1v0H57.85c-2,0-3.91,0-5.86,0a19.14,19.14,0,0,1-2.27-.2,2.52,2.52,0,0,1-1-.44,4,4,0,0,1-1.49-2.92l11.2,1.88v-.06c-1.5-.32-3-.62-4.48-1s-3.05-.83-4.58-1.22a5.64,5.64,0,0,1-3.1-2.23,21.25,21.25,0,0,1-2.11-3.56,2.44,2.44,0,0,1-.1-.28L58.42,71l0-.07-.62-.34c-3.52-2-7.06-3.9-10.56-5.9a18.16,18.16,0,0,1-2.89-2,7.16,7.16,0,0,1-2.23-4.47,13.59,13.59,0,0,1,.06-4.5,1.12,1.12,0,0,1,.05-.13s.07,0,.08.06A34.71,34.71,0,0,0,49,61.49a61.29,61.29,0,0,0,10.79,7.79,4.85,4.85,0,0,1,1.62,1.29,3.71,3.71,0,0,1,.72,2.69,11.77,11.77,0,0,0,1.44,7.33,30.34,30.34,0,0,0,1.91,2.63,3,3,0,0,0,.25.28,9.36,9.36,0,0,1-2.9-2.21,7.59,7.59,0,0,1-1.67-3.22,6.48,6.48,0,0,1-1.38,2.22,5.06,5.06,0,0,1-2.33,1.34l3.11-4.85,0,0c-.45.4-.88.8-1.33,1.19a10.29,10.29,0,0,1-2.73,1.83,4.25,4.25,0,0,1-3.33-.12L59.82,76l0,0L58,76.6a16.58,16.58,0,0,1-4,1,3.65,3.65,0,0,1-1.31-.15A8.33,8.33,0,0,1,49.43,75.51Z"/><path class="cls-1" d="M75.69,81.84s0,.1,0,.16,0,.14-.06.16c-.36.22-.73.43-1.1.64l-.21-.22s0,0,0,0c0,.27-.1.35-.34.39s-.66.17-1,.26l-.18-.3-.08.32h-1.4L71.23,83l-.18.3c-.42-.11-.84-.21-1.26-.34-.06,0-.07-.21-.1-.31-.26.17-.26.17-.58,0s-.35-.21-.53-.3-.42-.19-.18-.54l-.34.18-1-1,.16-.29-.34.08c-.21-.38-.44-.75-.64-1.14,0-.06.08-.19.14-.29l-.29,0c-.11-.4-.23-.81-.32-1.22,0-.08.12-.2.19-.3l-.27-.09c0-.42,0-.83,0-1.25,0-.06.08-.12.14-.16a2,2,0,0,1,.2-.07c-.36-.07-.28-.28-.21-.49l.27-1h.29a.12.12,0,0,1,0,0c-.2-.13-.19-.27-.06-.46a4.34,4.34,0,0,0,.38-.66c.11-.2.21-.38.49-.22l-.13-.24,1-1,.25.15c0-.1,0-.16,0-.23s0-.13.06-.15l1.16-.68.17.26h.06c-.12-.36.1-.39.33-.44l1-.26.18.3.08-.33H72.7l.09.33.18-.3c.42.11.84.21,1.26.34.06,0,.07.21.11.35l.18-.25c.4.23.78.43,1.13.67.07,0,0,.22.08.34l.22-.12,1,1-.17.29.34-.09c.22.37.45.74.64,1.12,0,.07-.07.21-.12.31h.28c.11.43.23.85.32,1.28,0,.07-.13.17-.22.27.38,0,.3.24.3.46v1l-.29.08s0,0,0,0c.25.09.24.26.17.48s-.12.44-.19.66-.09.33-.44.38c.35.16.18.34.07.53s-.34.58-.51.88l-.34-.09.16.31c-.3.3-.59.62-.9.9C76,81.92,75.81,81.85,75.69,81.84ZM76.36,77A4.36,4.36,0,1,0,72,81.38,4.36,4.36,0,0,0,76.36,77Z"/><path class="cls-2" d="M76.16,77A4.15,4.15,0,1,1,72,72.86,4.17,4.17,0,0,1,76.16,77Zm-6.7-2.86,1.59,1.24c.13.1.49-.09.51-.26s0-.43.08-.64c0-.43.1-.85.15-1.31A3.77,3.77,0,0,0,69.46,74.18Zm5.38.29c-.43.54-.84,1.07-1.25,1.6a.2.2,0,0,0,0,.11c.07.32.14.37.46.41l.27,0,1.52.17A3.78,3.78,0,0,0,74.84,74.47Zm-2.61-1.26v.2c.07.59.14,1.17.22,1.76a.39.39,0,0,0,.56.21l1.23-1a3.23,3.23,0,0,0,.29-.25A3.85,3.85,0,0,0,72.23,73.21Zm3.58,4-2,.24a.39.39,0,0,0-.22.55l.83,1,.38.48A3.81,3.81,0,0,0,75.81,77.22Zm-1.27,2.62L73,78.61c-.13-.11-.49.06-.51.23-.06.44-.11.88-.16,1.31,0,.21-.05.43-.07.66A3.84,3.84,0,0,0,74.54,79.84Zm-2.77.94s0,0,0,0c-.07-.64-.15-1.28-.23-1.93a.14.14,0,0,0,0-.11.46.46,0,0,0-.61,0l-.13.1-1.29,1A3.51,3.51,0,0,0,71.77,80.78Zm-2.61-6.31a3.8,3.8,0,0,0-1,2.33l2-.25c.15,0,.32-.38.22-.5C70,75.52,69.58,75,69.16,74.47Zm-1,2.75a3.78,3.78,0,0,0,1,2.33L70.36,78a.38.38,0,0,0-.24-.57Zm4.49-.2a.69.69,0,0,0-.73-.7.7.7,0,0,0,0,1.39A.68.68,0,0,0,72.69,77Z"/><path class="cls-2" d="M71.83,32l3.57.93a7.06,7.06,0,0,1-2,3.8,42.33,42.33,0,0,1-4.57,3.55,19,19,0,0,0-7.63,8.91A13.67,13.67,0,0,0,71.56,67.6a11.13,11.13,0,0,0,7.65-1.16A4.75,4.75,0,0,0,82,61.89a5.14,5.14,0,0,0-3.28-4.57l-.31-.14,3.86-3.54a8.41,8.41,0,0,1,2.18,4.15,9.22,9.22,0,0,1-4.86,9.7A10.77,10.77,0,0,1,71.7,68.6c-4-.94-7.49-2.78-9.9-6.2-2.76-3.92-2.91-8.3-1.75-12.79a20.71,20.71,0,0,1,5.59-9.45c.91-.92,1.81-1.87,2.67-2.85a22,22,0,0,0,2-2.45C70.85,34,71.28,33,71.83,32Z"/><path class="cls-1" d="M68.63,49.65c1.12.25,2.22.5,3.33.73a6.87,6.87,0,0,0,5-.61,5.44,5.44,0,0,0,2.78-5.25,4.8,4.8,0,0,0-3.83-4.15,22.45,22.45,0,0,0-3.58-.44c-.22,0-.44,0-.83,0,.69-.59,1.19-1.08,2-1,3.83.33,6.82,2,8.57,5.51,1.66,3.34.52,7.71-2.52,10.38a10.16,10.16,0,0,1-8.3,2.48c-.64-.08-1.29-.15-1.93-.29-.18,0-.46-.29-.47-.45C68.75,54.31,68.7,52.05,68.63,49.65Z"/><text class="cls-3" transform="translate(39.87 98.26)">3B<tspan class="cls-4" x="11.67" y="0"> </tspan><tspan class="cls-1" x="14.48" y="0">TRANSPORT</tspan></text></svg>